<svg width="745" height="837" viewBox="0 0 745 837" fill="none" xmlns="http://www.w3.org/2000/svg">
<path d="M53.8519 -198.432C54.5143 -223.633 89.5691 -229.233 98.0496 -205.493L207.613 101.213C213.529 117.775 235.19 121.66 246.493 108.187L446.249 -129.915C462.242 -148.978 492.846 -132.236 485.418 -108.487L386.766 206.925C381.806 222.784 394.957 238.442 411.434 236.296L718.403 196.319C742.577 193.171 754.119 225.084 733.524 238.128L466.065 407.523C452.325 416.225 451.877 436.112 465.212 445.423L731.658 631.464C751.818 645.541 738.438 677.155 714.298 672.482L412.528 614.067C395.699 610.809 381.442 626.616 386.414 643.021L482.315 959.449C489.601 983.49 458.301 999.882 442.691 980.2L245.098 731.079C234.063 717.167 212.056 720.682 205.905 737.34L95.7577 1035.62C87.0557 1059.19 52.2069 1053.36 51.6407 1028.25L44.1881 697.691C43.8017 680.553 25.3299 669.974 10.353 678.313L-258.199 827.835C-279.682 839.796 -302.246 813.924 -287.474 794.267L-92.2493 534.476C-82.4788 521.474 -89.0992 502.716 -104.866 498.728L-411.789 421.088C-435.423 415.11 -434.398 381.189 -410.446 376.649L-106.3 319.003C-89.9734 315.908 -82.3552 296.932 -92.0095 283.408L-284.017 14.4283C-298.474 -5.82469 -274.609 -31.2686 -253.472 -18.1366L10.5207 145.882C25.459 155.164 44.8316 144.724 45.2937 127.143L53.8519 -198.432Z" fill="#FF36AA"/>
<path d="M53.8519 -198.432C54.5143 -223.633 89.5691 -229.233 98.0496 -205.493L207.613 101.213C213.529 117.775 235.19 121.66 246.493 108.187L446.249 -129.915C462.242 -148.978 492.846 -132.236 485.418 -108.487L386.766 206.925C381.806 222.784 394.957 238.442 411.434 236.296L718.403 196.319C742.577 193.171 754.119 225.084 733.524 238.128L466.065 407.523C452.325 416.225 451.877 436.112 465.212 445.423L731.658 631.464C751.818 645.541 738.438 677.155 714.298 672.482L412.528 614.067C395.699 610.809 381.442 626.616 386.414 643.021L482.315 959.449C489.601 983.49 458.301 999.882 442.691 980.2L245.098 731.079C234.063 717.167 212.056 720.682 205.905 737.34L95.7577 1035.62C87.0557 1059.19 52.2069 1053.36 51.6407 1028.25L44.1881 697.691C43.8017 680.553 25.3299 669.974 10.353 678.313L-258.199 827.835C-279.682 839.796 -302.246 813.924 -287.474 794.267L-92.2493 534.476C-82.4788 521.474 -89.0992 502.716 -104.866 498.728L-411.789 421.088C-435.423 415.11 -434.398 381.189 -410.446 376.649L-106.3 319.003C-89.9734 315.908 -82.3552 296.932 -92.0095 283.408L-284.017 14.4283C-298.474 -5.82469 -274.609 -31.2686 -253.472 -18.1366L10.5207 145.882C25.459 155.164 44.8316 144.724 45.2937 127.143L53.8519 -198.432Z" fill="#FF8805"/>
<path d="M53.8519 -198.432C54.5143 -223.633 89.5691 -229.233 98.0496 -205.493L207.613 101.213C213.529 117.775 235.19 121.66 246.493 108.187L446.249 -129.915C462.242 -148.978 492.846 -132.236 485.418 -108.487L386.766 206.925C381.806 222.784 394.957 238.442 411.434 236.296L718.403 196.319C742.577 193.171 754.119 225.084 733.524 238.128L466.065 407.523C452.325 416.225 451.877 436.112 465.212 445.423L731.658 631.464C751.818 645.541 738.438 677.155 714.298 672.482L412.528 614.067C395.699 610.809 381.442 626.616 386.414 643.021L482.315 959.449C489.601 983.49 458.301 999.882 442.691 980.2L245.098 731.079C234.063 717.167 212.056 720.682 205.905 737.34L95.7577 1035.62C87.0557 1059.19 52.2069 1053.36 51.6407 1028.25L44.1881 697.691C43.8017 680.553 25.3299 669.974 10.353 678.313L-258.199 827.835C-279.682 839.796 -302.246 813.924 -287.474 794.267L-92.2493 534.476C-82.4788 521.474 -89.0992 502.716 -104.866 498.728L-411.789 421.088C-435.423 415.11 -434.398 381.189 -410.446 376.649L-106.3 319.003C-89.9734 315.908 -82.3552 296.932 -92.0095 283.408L-284.017 14.4283C-298.474 -5.82469 -274.609 -31.2686 -253.472 -18.1366L10.5207 145.882C25.459 155.164 44.8316 144.724 45.2937 127.143L53.8519 -198.432Z" fill="url(#paint0_angular_38_5486)"/>
<defs>
<radialGradient id="paint0_angular_38_5486" cx="0" cy="0" r="1" gradientUnits="userSpaceOnUse" gradientTransform="translate(157.419 303.127) rotate(68.6984) scale(682.593 779.465)">
<stop offset="0.208333" stop-color="#F4C008"/>
<stop offset="0.369792" stop-color="#FF70AF"/>
<stop offset="0.66199" stop-color="#4FDFF7"/>
<stop offset="1" stop-color="#FA6760"/>
</radialGradient>
</defs>
</svg>