<svg width="180" height="61" viewBox="0 0 180 61" fill="none" xmlns="http://www.w3.org/2000/svg">
<path d="M0.0666061 55.4141C-0.0962089 51.3127 0.0394703 47.1292 0.473644 42.8637C0.934953 38.5709 1.40983 35.3034 1.89828 33.0613L2.67165 29.6161H21.3954V27.8525H8.63461C8.14617 24.1612 7.90194 20.0597 7.90194 15.5482C7.90194 11.0366 8.01049 7.46834 8.22757 4.84342L8.63461 0.824015C15.7442 0.277158 17.6642 0.00372858 25.1808 0.00372858C32.7246 -0.0236143 38.4774 0.0994287 42.4392 0.372858L48.3413 0.824015V31.1336C48.3413 41.0317 46.2111 48.3323 41.9508 53.0353C37.7176 57.7383 31.1236 60.0897 22.1687 60.0897C13.4853 60.1171 6.1179 58.5585 0.0666061 55.4141Z" fill="black"/>
<path d="M0.0666061 55.4141C-0.0962089 51.3127 0.0394703 47.1292 0.473644 42.8637C0.934953 38.5709 1.40983 35.3034 1.89828 33.0613L2.67165 29.6161H21.3954V27.8525H8.63461C8.14617 24.1612 7.90194 20.0597 7.90194 15.5482C7.90194 11.0366 8.01049 7.46834 8.22757 4.84342L8.63461 0.824015C15.7442 0.277158 17.6642 0.00372858 25.1808 0.00372858C32.7246 -0.0236143 38.4774 0.0994287 42.4392 0.372858L48.3413 0.824015V31.1336C48.3413 41.0317 46.2111 48.3323 41.9508 53.0353C37.7176 57.7383 31.1236 60.0897 22.1687 60.0897C13.4853 60.1171 6.1179 58.5585 0.0666061 55.4141Z" fill="url(#paint0_linear_43_10454)"/>
<path d="M0.0666061 55.4141C-0.0962089 51.3127 0.0394703 47.1292 0.473644 42.8637C0.934953 38.5709 1.40983 35.3034 1.89828 33.0613L2.67165 29.6161H21.3954V27.8525H8.63461C8.14617 24.1612 7.90194 20.0597 7.90194 15.5482C7.90194 11.0366 8.01049 7.46834 8.22757 4.84342L8.63461 0.824015C15.7442 0.277158 17.6642 0.00372858 25.1808 0.00372858C32.7246 -0.0236143 38.4774 0.0994287 42.4392 0.372858L48.3413 0.824015V31.1336C48.3413 41.0317 46.2111 48.3323 41.9508 53.0353C37.7176 57.7383 31.1236 60.0897 22.1687 60.0897C13.4853 60.1171 6.1179 58.5585 0.0666061 55.4141Z" fill="url(#paint1_radial_43_10454)"/>
<path d="M60.8789 8.20653C66.686 2.81998 74.5554 0.126709 84.4871 0.126709C94.446 0.126709 102.315 2.81998 108.095 8.20653C113.875 13.5657 116.765 20.8936 116.765 30.1902C116.765 39.7056 113.943 47.1018 108.299 52.379C102.655 57.6562 94.7173 60.2948 84.4871 60.2948C74.2026 60.2948 66.2383 57.6698 60.594 52.42C54.9769 47.1428 52.1683 39.7329 52.1683 30.1902C52.1683 20.8936 55.0719 13.5657 60.8789 8.20653Z" fill="black"/>
<path d="M60.8789 8.20653C66.686 2.81998 74.5554 0.126709 84.4871 0.126709C94.446 0.126709 102.315 2.81998 108.095 8.20653C113.875 13.5657 116.765 20.8936 116.765 30.1902C116.765 39.7056 113.943 47.1018 108.299 52.379C102.655 57.6562 94.7173 60.2948 84.4871 60.2948C74.2026 60.2948 66.2383 57.6698 60.594 52.42C54.9769 47.1428 52.1683 39.7329 52.1683 30.1902C52.1683 20.8936 55.0719 13.5657 60.8789 8.20653Z" fill="url(#paint2_linear_43_10454)"/>
<path d="M179.052 8.86276C179.052 13.5111 178.726 17.7492 178.075 21.5772C177.451 25.3779 176.637 28.4676 175.633 30.8465C174.629 33.2253 173.516 35.317 172.295 37.1217C171.074 38.8989 169.853 40.2251 168.632 41.1C167.411 41.9477 166.298 42.6449 165.294 43.1918C164.29 43.7113 163.476 44.0257 162.852 44.1351L161.875 44.2992V59.4335C157.642 60.117 153.287 60.4588 148.809 60.4588C144.359 60.4588 140.926 60.2811 138.511 59.9256L135.011 59.4335V44.1351C134.794 44.0804 134.481 44.0121 134.074 43.93C133.667 43.848 132.853 43.5199 131.632 42.9457C130.438 42.3441 129.298 41.6059 128.213 40.7309C127.155 39.8286 125.947 38.4478 124.59 36.5885C123.261 34.7291 122.121 32.5964 121.171 30.1902C120.249 27.784 119.448 24.667 118.77 20.839C118.091 17.0109 117.752 12.8001 117.752 8.20653V1.15207C122.528 0.468495 127.385 0.126709 132.324 0.126709C137.29 0.126709 141.075 0.290766 143.68 0.618881L147.547 1.15207V25.0634H149.46V1.15207C154.399 0.523181 159.338 0.208738 164.277 0.208738C169.242 0.208738 172.946 0.345452 175.389 0.618881L179.052 1.15207V8.86276Z" fill="black"/>
<path d="M179.052 8.86276C179.052 13.5111 178.726 17.7492 178.075 21.5772C177.451 25.3779 176.637 28.4676 175.633 30.8465C174.629 33.2253 173.516 35.317 172.295 37.1217C171.074 38.8989 169.853 40.2251 168.632 41.1C167.411 41.9477 166.298 42.6449 165.294 43.1918C164.29 43.7113 163.476 44.0257 162.852 44.1351L161.875 44.2992V59.4335C157.642 60.117 153.287 60.4588 148.809 60.4588C144.359 60.4588 140.926 60.2811 138.511 59.9256L135.011 59.4335V44.1351C134.794 44.0804 134.481 44.0121 134.074 43.93C133.667 43.848 132.853 43.5199 131.632 42.9457C130.438 42.3441 129.298 41.6059 128.213 40.7309C127.155 39.8286 125.947 38.4478 124.59 36.5885C123.261 34.7291 122.121 32.5964 121.171 30.1902C120.249 27.784 119.448 24.667 118.77 20.839C118.091 17.0109 117.752 12.8001 117.752 8.20653V1.15207C122.528 0.468495 127.385 0.126709 132.324 0.126709C137.29 0.126709 141.075 0.290766 143.68 0.618881L147.547 1.15207V25.0634H149.46V1.15207C154.399 0.523181 159.338 0.208738 164.277 0.208738C169.242 0.208738 172.946 0.345452 175.389 0.618881L179.052 1.15207V8.86276Z" fill="url(#paint3_linear_43_10454)"/>
<path d="M179.052 8.86276C179.052 13.5111 178.726 17.7492 178.075 21.5772C177.451 25.3779 176.637 28.4676 175.633 30.8465C174.629 33.2253 173.516 35.317 172.295 37.1217C171.074 38.8989 169.853 40.2251 168.632 41.1C167.411 41.9477 166.298 42.6449 165.294 43.1918C164.29 43.7113 163.476 44.0257 162.852 44.1351L161.875 44.2992V59.4335C157.642 60.117 153.287 60.4588 148.809 60.4588C144.359 60.4588 140.926 60.2811 138.511 59.9256L135.011 59.4335V44.1351C134.794 44.0804 134.481 44.0121 134.074 43.93C133.667 43.848 132.853 43.5199 131.632 42.9457C130.438 42.3441 129.298 41.6059 128.213 40.7309C127.155 39.8286 125.947 38.4478 124.59 36.5885C123.261 34.7291 122.121 32.5964 121.171 30.1902C120.249 27.784 119.448 24.667 118.77 20.839C118.091 17.0109 117.752 12.8001 117.752 8.20653V1.15207C122.528 0.468495 127.385 0.126709 132.324 0.126709C137.29 0.126709 141.075 0.290766 143.68 0.618881L147.547 1.15207V25.0634H149.46V1.15207C154.399 0.523181 159.338 0.208738 164.277 0.208738C169.242 0.208738 172.946 0.345452 175.389 0.618881L179.052 1.15207V8.86276Z" fill="url(#paint4_angular_43_10454)"/>
<path d="M179.052 8.86276C179.052 13.5111 178.726 17.7492 178.075 21.5772C177.451 25.3779 176.637 28.4676 175.633 30.8465C174.629 33.2253 173.516 35.317 172.295 37.1217C171.074 38.8989 169.853 40.2251 168.632 41.1C167.411 41.9477 166.298 42.6449 165.294 43.1918C164.29 43.7113 163.476 44.0257 162.852 44.1351L161.875 44.2992V59.4335C157.642 60.117 153.287 60.4588 148.809 60.4588C144.359 60.4588 140.926 60.2811 138.511 59.9256L135.011 59.4335V44.1351C134.794 44.0804 134.481 44.0121 134.074 43.93C133.667 43.848 132.853 43.5199 131.632 42.9457C130.438 42.3441 129.298 41.6059 128.213 40.7309C127.155 39.8286 125.947 38.4478 124.59 36.5885C123.261 34.7291 122.121 32.5964 121.171 30.1902C120.249 27.784 119.448 24.667 118.77 20.839C118.091 17.0109 117.752 12.8001 117.752 8.20653V1.15207C122.528 0.468495 127.385 0.126709 132.324 0.126709C137.29 0.126709 141.075 0.290766 143.68 0.618881L147.547 1.15207V25.0634H149.46V1.15207C154.399 0.523181 159.338 0.208738 164.277 0.208738C169.242 0.208738 172.946 0.345452 175.389 0.618881L179.052 1.15207V8.86276Z" fill="url(#paint5_radial_43_10454)"/>
<path d="M93.5938 39.5312C93.5938 45.4708 89.6246 50.2858 84.7284 50.2858C79.8322 50.2858 75.863 45.4708 75.863 39.5312C75.863 39.5312 79.8322 41.4132 84.7284 41.4132C89.6246 41.4132 93.5938 39.5312 93.5938 39.5312Z" fill="white"/>
<defs>
<linearGradient id="paint0_linear_43_10454" x1="91.2097" y1="0.000557895" x2="91.2097" y2="60.4595" gradientUnits="userSpaceOnUse">
<stop stop-color="#FF8A00"/>
<stop offset="1" stop-color="#FF28C3"/>
</linearGradient>
<radialGradient id="paint1_radial_43_10454" cx="0" cy="0" r="1" gradientUnits="userSpaceOnUse" gradientTransform="translate(24.0352 9.81464) rotate(89.8457) scale(50.2757 108.517)">
<stop stop-color="#4FDFF7"/>
<stop offset="1" stop-color="#F6B81B"/>
</radialGradient>
<linearGradient id="paint2_linear_43_10454" x1="91.2106" y1="0.000667479" x2="91.2106" y2="60.4596" gradientUnits="userSpaceOnUse">
<stop stop-color="#FF8A00"/>
<stop offset="1" stop-color="#FF28C3"/>
</linearGradient>
<linearGradient id="paint3_linear_43_10454" x1="91.2106" y1="0.000667479" x2="91.2106" y2="60.4596" gradientUnits="userSpaceOnUse">
<stop stop-color="#FF8A00"/>
<stop offset="1" stop-color="#FF28C3"/>
</linearGradient>
<radialGradient id="paint4_angular_43_10454" cx="0" cy="0" r="1" gradientUnits="userSpaceOnUse" gradientTransform="translate(148.437 25.6198) rotate(76.4966) scale(27.7004 34.7025)">
<stop offset="0.208333" stop-color="#F4C008"/>
<stop offset="0.369792" stop-color="#FF70AF"/>
<stop offset="0.66199" stop-color="#4FDFF7"/>
<stop offset="1" stop-color="#FA6760"/>
</radialGradient>
<radialGradient id="paint5_radial_43_10454" cx="0" cy="0" r="1" gradientUnits="userSpaceOnUse" gradientTransform="translate(148.23 13.3067) rotate(89.7913) scale(47.1525 168.642)">
<stop stop-color="#FF70AF"/>
<stop offset="1" stop-color="#4FDFF7"/>
</radialGradient>
</defs>
</svg>
